<svg width="950" height="228" viewBox="0 0 950 228" fill="none" xmlns="http://www.w3.org/2000/svg">
<g clip-path="url(#clip0_1473_1392)">
<path d="M225.788 56.516H241.471C253.685 56.516 262.486 65.2321 262.486 77.192C262.486 89.1519 253.601 97.9808 241.471 97.9808H225.788V56.516ZM241.246 89.6596C248.354 89.6596 253.318 84.4413 253.318 77.192C253.318 69.9427 248.382 64.8372 241.246 64.8372H234.758V89.6314H241.246V89.6596Z" fill="white"/>
<path d="M267 81.9876C267 72.3407 274.108 65.0914 283.586 65.0914C293.064 65.0914 300.144 72.651 300.144 81.8748C300.144 82.721 300.087 83.5672 299.974 84.4135H275.772C276.534 88.7856 279.383 91.1832 283.586 91.1832C286.576 91.1832 289.058 89.7729 290.384 87.4881H299.467C297.154 94.4553 291.033 98.912 283.586 98.912C274.136 98.912 267 91.6063 267 82.0158V81.9876ZM291.512 78.4899C290.299 74.5691 287.479 72.4535 283.614 72.4535C279.75 72.4535 277.042 74.7101 276.026 78.4899H291.512Z" fill="white"/>
<path d="M304.092 81.8747C304.092 72.2842 311.398 65.0631 321.129 65.0631C329.422 65.0631 335.825 70.3097 337.405 78.1795H328.83C327.419 75.0203 324.542 73.1868 321.101 73.1868C316.418 73.1868 312.892 76.9384 312.892 81.9029C312.892 86.8674 316.475 90.7036 321.101 90.7036C324.599 90.7036 327.363 88.7573 328.83 85.3442H337.546C336.051 93.3833 329.478 98.8273 321.129 98.8273C311.51 98.8273 304.148 91.4088 304.148 81.8465L304.092 81.8747Z" fill="white"/>
<path d="M351.904 82.6644V97.981H343.244V54.457H351.904V80.2103L361.607 65.9938H371.48L360.648 81.2822L372.636 97.9528H362.199L351.904 82.6362V82.6644Z" fill="white"/>
<path d="M392.297 72.82C387.981 72.82 385.132 75.9792 385.132 81.1694V97.981H376.473V54.457H385.132V68.9556C387.558 66.6426 390.971 65.2322 394.807 65.2322C402.057 65.2322 406.542 70.3942 406.542 78.5461V97.981H397.882V79.9847C397.882 75.1894 396.19 72.82 392.297 72.82Z" fill="white"/>
<path d="M412.155 81.9876C412.155 72.2843 419.546 65.0914 429.446 65.0914C439.347 65.0914 446.737 72.2843 446.737 81.9876C446.737 91.691 439.319 98.8838 429.446 98.8838C419.574 98.8838 412.155 91.6345 412.155 81.9876ZM437.965 81.9876C437.965 76.7975 434.439 73.2151 429.446 73.2151C424.454 73.2151 420.928 76.7975 420.928 81.9876C420.928 87.1778 424.454 90.7601 429.446 90.7601C434.439 90.7601 437.965 87.1778 437.965 81.9876Z" fill="white"/>
<path d="M452.294 84.4698V65.994H460.954V83.4826C460.954 88.024 463.351 90.7601 467.357 90.7601C471.362 90.7601 473.703 87.9957 473.703 83.4826V65.994H482.363V84.4698C482.363 93.1013 476.411 98.8838 467.357 98.8838C458.302 98.8838 452.322 93.1013 452.322 84.4698H452.294Z" fill="white"/>
<path d="M487.948 87.4315H496.382C496.439 90.2805 498.611 91.6908 501.713 91.6908C504.111 91.6908 506.255 90.5908 506.255 88.4752C506.255 86.3597 503.491 85.6263 500.106 85.0621C495 84.2159 488.484 82.8337 488.484 75.3024C488.484 69.2378 493.618 65.0631 501.347 65.0631C509.076 65.0631 514.125 69.3506 514.153 75.7537H505.945C505.916 73.215 504.139 71.9457 501.121 71.9457C498.441 71.9457 496.834 73.1868 496.834 75.0203C496.834 77.1641 499.57 77.6436 502.898 78.2359C508.116 79.1668 514.773 80.2669 514.773 88.0803C514.773 94.5962 509.442 98.8555 501.375 98.8555C493.308 98.8555 487.976 94.2859 487.948 87.4315Z" fill="white"/>
<path d="M518.92 81.9876C518.92 72.3407 526.028 65.0914 535.506 65.0914C544.983 65.0914 552.064 72.651 552.064 81.8748C552.064 82.721 552.007 83.5672 551.894 84.4135H527.692C528.454 88.7856 531.303 91.1832 535.506 91.1832C538.496 91.1832 540.978 89.7729 542.304 87.4881H551.387C549.074 94.4553 542.953 98.912 535.506 98.912C526.056 98.912 518.92 91.6063 518.92 82.0158V81.9876ZM543.432 78.4899C542.219 74.5691 539.398 72.4535 535.534 72.4535C531.67 72.4535 528.962 74.7101 527.946 78.4899H543.432Z" fill="white"/>
<path d="M221.529 120.462H231.43L241.923 149.769L252.106 120.462H261.894L246.211 161.927H237.749L221.529 120.462Z" fill="white"/>
<path d="M266.352 129.94H275.011V161.927H266.352V129.94ZM266.352 117.641H274.955V125.68H266.352V117.641Z" fill="white"/>
<path d="M282.908 129.94H288.465L289.988 133.861C292.273 131.04 295.15 129.771 299.268 129.771H302.117V137.922H298.366C293.486 137.922 291.568 140.066 291.568 145.313V161.927H282.908V129.94Z" fill="white"/>
<path d="M310.355 150.503V136.879H304.572V135.017L317.209 121.591H318.873V129.94H327.702V136.879H319.014V149.347C319.014 152.449 320.791 154.226 323.951 154.226H327.872V161.927H321.722C314.699 161.927 310.355 157.611 310.355 150.503Z" fill="white"/>
<path d="M333.259 148.416V129.94H341.918V147.428C341.918 151.97 344.316 154.706 348.322 154.706C352.327 154.706 354.668 151.942 354.668 147.428V129.94H363.328V148.416C363.328 157.047 357.376 162.83 348.322 162.83C339.267 162.83 333.287 157.047 333.287 148.416H333.259Z" fill="white"/>
<path d="M368.913 145.905C368.913 136.258 376.078 129.065 385.696 129.065C389.815 129.065 393.425 130.504 396.19 132.986L397.12 129.94H403.58V161.927H396.81L396.077 159.078C393.341 161.476 389.758 162.886 385.725 162.886C376.106 162.886 368.941 155.637 368.941 145.933L368.913 145.905ZM395.089 145.905C395.089 140.884 391.394 137.133 386.373 137.133C381.353 137.133 377.657 140.884 377.657 145.905C377.657 150.926 381.353 154.678 386.373 154.678C391.394 154.678 395.089 150.926 395.089 145.905Z" fill="white"/>
<path d="M411.591 118.431H420.25V161.927H411.591V118.431Z" fill="white"/>
<path d="M428.177 129.94H436.836V161.927H428.177V129.94ZM428.177 117.641H436.78V125.68H428.177V117.641Z" fill="white"/>
<path d="M441.829 160.968L455.453 137.81H443.127V129.968H468.231V131.153L454.776 154.001H468.259V161.955H441.829V160.996V160.968Z" fill="white"/>
<path d="M471.447 145.905C471.447 136.258 478.612 129.065 488.231 129.065C492.349 129.065 495.959 130.504 498.724 132.986L499.655 129.94H506.114V161.927H499.344L498.611 159.078C495.875 161.476 492.292 162.886 488.259 162.886C478.64 162.886 471.475 155.637 471.475 145.933L471.447 145.905ZM497.652 145.905C497.652 140.884 493.957 137.133 488.936 137.133C483.915 137.133 480.22 140.884 480.22 145.905C480.22 150.926 483.915 154.678 488.936 154.678C493.957 154.678 497.652 150.926 497.652 145.905Z" fill="white"/>
<path d="M516.072 150.503V136.879H510.289V135.017L522.926 121.591H524.59V129.94H533.419V136.879H524.731V149.347C524.731 152.449 526.508 154.226 529.668 154.226H533.588V161.927H527.439C520.416 161.927 516.072 157.611 516.072 150.503Z" fill="white"/>
<path d="M539.934 129.94H548.593V161.927H539.934V129.94ZM539.962 117.641H548.565V125.68H539.962V117.641Z" fill="white"/>
<path d="M554.602 145.933C554.602 136.23 561.992 129.037 571.893 129.037C581.793 129.037 589.184 136.23 589.184 145.933C589.184 155.637 581.765 162.83 571.893 162.83C562.02 162.83 554.602 155.58 554.602 145.933ZM580.411 145.933C580.411 140.743 576.885 137.161 571.893 137.161C566.9 137.161 563.374 140.743 563.374 145.933C563.374 151.124 566.9 154.706 571.893 154.706C576.885 154.706 580.411 151.124 580.411 145.933Z" fill="white"/>
<path d="M611.044 136.794C606.587 136.794 603.879 139.982 603.879 145.144V161.955H595.22V129.968H601.143L602.836 133.917C605.262 131.04 609.07 129.207 613.442 129.207C620.719 129.207 625.261 134.481 625.261 142.577V161.955H616.601V143.959C616.601 139.136 614.767 136.794 611.016 136.794H611.044Z" fill="white"/>
<path d="M647.939 120.462H663.905C672.226 120.462 678.544 126.527 678.544 134.707C678.544 142.887 672.226 148.951 663.905 148.951H656.909V161.899H647.939V120.434V120.462ZM663.482 140.687C667.036 140.687 669.433 138.176 669.433 134.735C669.433 131.294 667.064 128.783 663.482 128.783H656.881V140.687H663.482Z" fill="white"/>
<path d="M683.397 118.431H692.057V161.927H683.397V118.431Z" fill="white"/>
<path d="M698.064 145.905C698.064 136.258 705.229 129.065 714.848 129.065C718.966 129.065 722.577 130.504 725.341 132.986L726.272 129.94H732.731V161.927H725.962L725.228 159.078C722.492 161.476 718.91 162.886 714.876 162.886C705.257 162.886 698.093 155.637 698.093 145.933L698.064 145.905ZM724.241 145.905C724.241 140.884 720.546 137.133 715.525 137.133C710.504 137.133 706.809 140.884 706.809 145.905C706.809 150.926 710.504 154.678 715.525 154.678C720.546 154.678 724.241 150.926 724.241 145.905Z" fill="white"/>
<path d="M742.689 150.503V136.879H736.906V135.017L749.543 121.591H751.207V129.94H760.036V136.879H751.348V149.347C751.348 152.449 753.125 154.226 756.285 154.226H760.205V161.927H754.056C747.033 161.927 742.689 157.611 742.689 150.503Z" fill="white"/>
<path d="M769.148 137.5H763.619V130.363H769.204V127.458C769.204 121.337 772.645 117.416 779.359 117.416H785.79V124.214H781.079C778.795 124.214 777.582 125.399 777.582 127.655V130.335H785.846V137.471H777.807V161.899H769.148V137.471V137.5Z" fill="white"/>
<path d="M788.271 145.933C788.271 136.23 795.662 129.037 805.563 129.037C815.463 129.037 822.854 136.23 822.854 145.933C822.854 155.637 815.435 162.83 805.563 162.83C795.69 162.83 788.271 155.58 788.271 145.933ZM814.081 145.933C814.081 140.743 810.555 137.161 805.563 137.161C800.57 137.161 797.044 140.743 797.044 145.933C797.044 151.124 800.57 154.706 805.563 154.706C810.555 154.706 814.081 151.124 814.081 145.933Z" fill="white"/>
<path d="M828.862 129.94H834.419L835.942 133.861C838.227 131.04 841.104 129.771 845.223 129.771H848.071V137.922H844.32C839.44 137.922 837.522 140.066 837.522 145.313V161.927H828.862V129.94Z" fill="white"/>
<path d="M852.359 129.94H858.396L860.003 133.917C862.26 131.068 865.786 129.207 869.537 129.207C873.599 129.207 876.956 131.097 878.818 134.312C880.99 131.209 884.657 129.207 888.718 129.207C895.347 129.207 899.973 134.397 899.973 141.9V161.955H891.314V143.339C891.314 139.079 889.649 136.823 886.49 136.823C882.626 136.823 880.341 139.672 880.341 144.664V161.955H871.907V143.339C871.907 139.079 870.271 136.823 867.196 136.823C863.275 136.823 860.962 139.672 860.962 144.664V161.955H852.303V129.968L852.359 129.94Z" fill="white"/>
<path d="M113.974 81.6487L85.9922 97.8115V130.137L113.974 146.3L141.956 130.137V97.8115L113.974 81.6487ZM128.388 113.974C128.388 120.942 122.746 126.583 115.779 126.583H103.17V101.366H115.779C122.746 101.366 128.388 107.007 128.388 113.974Z" fill="white"/>
<path d="M177.921 81.9871H161.955V65.9936H125.963V50H177.921V81.9871Z" fill="white"/>
<path d="M65.9936 81.9871H50V50H101.986V65.9936H65.9936V81.9871Z" fill="white"/>
<path d="M65.9936 97.9807H50V129.968H65.9936V97.9807Z" fill="white"/>
<path d="M101.986 177.948H50V146.271H65.9936V161.955H101.986V177.948Z" fill="white"/>
<path d="M177.921 177.948H125.963V161.955H161.955V146.271H177.921V177.948Z" fill="white"/>
<path d="M177.949 97.9807H161.955V129.968H177.949V97.9807Z" fill="white"/>
</g>
<defs>
<clipPath id="clip0_1473_1392">
<rect width="850" height="127.949" fill="white" transform="translate(50 50)"/>
</clipPath>
</defs>
</svg>
